<svg width="215" height="34" viewBox="0 0 215 34" fill="none" xmlns="http://www.w3.org/2000/svg">
<path d="M0.55 3.85C0.55 2.41667 1.6 1.7 3.7 1.7C4.6 1.7 6.31667 1.73333 8.85 1.8C11.65 1.93333 13.7667 2 15.2 2C16.3667 2 17.7833 1.93333 19.45 1.8C20.5833 1.73333 21.3 1.7 21.6 1.7C23.4333 1.76667 24.9833 2.1 26.25 2.7C26.6167 2.86667 26.9167 3.06667 27.15 3.3C27.3833 3.53333 27.5 3.91667 27.5 4.45C27.5 5.18333 27.2667 5.81666 26.8 6.35C26.3333 6.85 25.7667 7.1 25.1 7.1C24.3667 7.1 23.3 7 21.9 6.8C20.6667 6.56667 19.5833 6.45 18.65 6.45C17.75 6.45 17.0667 6.46667 16.6 6.5C16.5 7.6 16.45 10.2333 16.45 14.4C16.45 19.3667 16.6 24.4 16.9 29.5L17 30.95C17 32.3167 16.2167 33 14.65 33C13.4167 33 12.5833 32.7167 12.15 32.15C11.7167 31.55 11.5 30.65 11.5 29.45C11.5 27.0833 11.4333 24.1333 11.3 20.6C11.1667 17.6667 11.1 15.5833 11.1 14.35C11.1 13.5167 11.2 10.9667 11.4 6.7L5.55 6.75C3.68333 6.75 2.38333 6.58333 1.65 6.25C0.916667 5.88333 0.55 5.08333 0.55 3.85ZM45.5457 16.95C45.8124 17.4167 46.029 18.1 46.1957 19C46.3624 19.8667 46.4457 20.65 46.4457 21.35C46.4457 22.65 46.1624 24.5 45.5957 26.9C43.2957 31.1 39.8957 33.2 35.3957 33.2C33.729 33.2 32.029 32.65 30.2957 31.55C28.5624 30.45 27.3624 29.1833 26.6957 27.75C25.7957 24.8833 25.3457 23.0667 25.3457 22.3C25.3457 20.9667 25.629 19.55 26.1957 18.05C26.7957 16.55 27.5457 15.25 28.4457 14.15C29.0124 13.3833 30.029 12.7333 31.4957 12.2C32.9624 11.6333 34.2957 11.35 35.4957 11.35C37.829 11.35 39.8124 11.8 41.4457 12.7C43.079 13.5667 44.4457 14.9833 45.5457 16.95ZM41.1957 25C41.3624 24.5667 41.4457 23.45 41.4457 21.65C41.4457 20.6833 41.2624 19.7333 40.8957 18.8C40.5624 17.8667 40.0624 17.0667 39.3957 16.4C39.329 16.3333 39.1457 16.2333 38.8457 16.1C38.5457 15.9333 38.129 15.7833 37.5957 15.65C37.0957 15.4833 36.5124 15.4 35.8457 15.4C33.979 15.4 32.6124 16.15 31.7457 17.65C30.879 19.15 30.4457 20.85 30.4457 22.75C30.4457 23.0833 30.529 23.7167 30.6957 24.65C30.8957 25.5833 31.0624 26.1667 31.1957 26.4C31.2957 26.6333 31.5457 26.9667 31.9457 27.4C32.379 27.8 32.8957 28.1667 33.4957 28.5C34.129 28.8 34.779 28.95 35.4457 28.95C36.9457 28.95 38.1457 28.6 39.0457 27.9C39.9457 27.1667 40.6624 26.2 41.1957 25ZM64.6316 19.75C66.165 19.75 66.9316 20.6167 66.9316 22.35C66.9316 23.25 66.615 23.9 65.9816 24.3C65.3816 24.7 64.6316 24.9 63.7316 24.9C63.465 24.9 63.1816 24.8833 62.8816 24.85C62.5816 24.8167 62.265 24.7833 61.9316 24.75C60.9316 24.5833 60.0316 24.5 59.2316 24.5C58.665 24.5 57.815 24.5667 56.6816 24.7C55.4816 24.8333 54.565 24.9 53.9316 24.9C53.0316 24.9 52.2316 24.7333 51.5316 24.4C50.8316 24.0333 50.4816 23.4333 50.4816 22.6C50.4816 21.4333 50.915 20.6833 51.7816 20.35C52.6483 19.9833 53.865 19.8 55.4316 19.8L57.0816 19.85C57.8816 19.9167 58.4983 19.95 58.9316 19.95L62.5816 19.85L64.6316 19.75ZM72.8 30.65C72.8 29.55 72.8667 28.3333 73 27C73.1333 25.4667 73.2 23.5333 73.2 21.2C73.2 16.9333 73.0167 12.8167 72.65 8.85C72.45 6.38333 72.35 4.63333 72.35 3.6C72.35 2.9 72.7 2.31667 73.4 1.85C74.1 1.35 74.8167 1.1 75.55 1.1C76.0167 1.1 76.5833 1.13333 77.25 1.2C77.9167 1.26667 78.4 1.3 78.7 1.3C86.2 1.3 91.7167 3.31667 95.25 7.35C97.4833 9.95 98.6 13.4 98.6 17.7C98.6 19.5 98.2667 21.3167 97.6 23.15C96.9667 24.95 96.05 26.4167 94.85 27.55C93.55 28.8167 92.3167 29.8333 91.15 30.6C90.0167 31.3333 88.4667 31.95 86.5 32.45C84.5667 32.95 82.0833 33.2 79.05 33.2C77.1167 33.2 75.5833 32.9833 74.45 32.55C73.35 32.1167 72.8 31.4833 72.8 30.65ZM80.95 28.65C83.1833 28.65 85.2333 28.25 87.1 27.45C88.9667 26.6167 90.4667 25.3833 91.6 23.75C92.7333 22.0833 93.3 20.05 93.3 17.65C93.3 15.2833 92.9667 13.3167 92.3 11.75C91.6333 10.15 90.4833 8.85 88.85 7.85C87.6167 7.08333 86.1 6.53333 84.3 6.2C82.5 5.83333 80.3333 5.65 77.8 5.65C77.8 5.98333 77.8333 6.75 77.9 7.95C77.9667 9.08333 78 10.0333 78 10.8L78.05 11.9C78.25 15.3667 78.35 18.1167 78.35 20.15C78.35 23.35 78.1667 26.1167 77.8 28.45C78.6 28.5833 79.65 28.65 80.95 28.65ZM122.741 16.95C123.007 17.4167 123.224 18.1 123.391 19C123.557 19.8667 123.641 20.65 123.641 21.35C123.641 22.25 123.541 23.25 123.341 24.35C123.141 25.45 122.957 26.3 122.791 26.9C120.491 31.1 117.091 33.2 112.591 33.2C110.924 33.2 109.224 32.65 107.491 31.55C105.757 30.45 104.557 29.1833 103.891 27.75C102.991 24.9167 102.541 23.1 102.541 22.3C102.541 20.9667 102.824 19.55 103.391 18.05C103.991 16.55 104.741 15.25 105.641 14.15C106.241 13.3833 107.274 12.7333 108.741 12.2C110.207 11.6333 111.541 11.35 112.741 11.35C115.074 11.35 117.041 11.8 118.641 12.7C120.274 13.5667 121.641 14.9833 122.741 16.95ZM118.391 25C118.557 24.6667 118.641 23.55 118.641 21.65C118.641 20.6833 118.457 19.7333 118.091 18.8C117.757 17.8667 117.257 17.0667 116.591 16.4C116.524 16.3333 116.341 16.2333 116.041 16.1C115.741 15.9333 115.324 15.7833 114.791 15.65C114.291 15.4833 113.707 15.4 113.041 15.4C111.174 15.4 109.807 16.15 108.941 17.65C108.074 19.15 107.641 20.85 107.641 22.75C107.641 23.05 107.741 23.6667 107.941 24.6C108.141 25.5333 108.291 26.1333 108.391 26.4C108.657 26.8667 109.191 27.4167 109.991 28.05C110.824 28.65 111.724 28.95 112.691 28.95C114.191 28.95 115.374 28.6 116.241 27.9C117.141 27.1667 117.857 26.2 118.391 25ZM143.162 1.25C144.595 1.25 145.428 2 145.662 3.5C146.062 6.33333 146.262 9.81667 146.262 13.95L146.212 20.25V22.15C146.212 24.2167 146.162 26.1333 146.062 27.9C147.462 28.0333 148.712 28.1 149.812 28.1C150.778 28.1 152.062 28.0667 153.662 28L156.712 27.95C157.645 27.95 158.412 28 159.012 28.1C159.645 28.1667 160.295 28.3667 160.962 28.7C161.662 29 162.012 29.5667 162.012 30.4C162.012 31.0667 161.795 31.6667 161.362 32.2C160.962 32.7333 160.478 33 159.912 33C159.512 33 158.878 32.9333 158.012 32.8C156.445 32.5667 154.945 32.45 153.512 32.45C153.045 32.45 152.512 32.4833 151.912 32.55C151.345 32.5833 150.928 32.6 150.662 32.6C149.862 32.7 149.062 32.75 148.262 32.75C146.628 32.75 145.162 32.6667 143.862 32.5C143.195 32.4333 142.528 32.1833 141.862 31.75C141.195 31.2833 140.862 30.6167 140.862 29.75C140.862 28.7167 140.912 27.4333 141.012 25.9C141.145 22.9667 141.212 20.35 141.212 18.05C141.212 16.7167 141.162 15.2833 141.062 13.75C140.962 12.2167 140.895 11.2167 140.862 10.75C140.628 8.01667 140.512 5.68333 140.512 3.75C140.512 2.88333 140.712 2.25 141.112 1.85C141.545 1.45 142.228 1.25 143.162 1.25ZM167.356 0.899999C168.523 0.999998 169.523 1.31666 170.356 1.85C171.223 2.35 171.656 3.11666 171.656 4.15C171.656 4.91667 171.306 5.53333 170.606 6C169.906 6.43333 169.039 6.65 168.006 6.65C167.039 6.65 166.373 6.4 166.006 5.9C165.639 5.4 165.456 4.88333 165.456 4.35C165.456 3.38333 165.573 2.56666 165.806 1.9C166.039 1.2 166.556 0.866666 167.356 0.899999ZM166.356 21.55V20.1C166.356 18.4333 166.273 16.9167 166.106 15.55C165.973 14.15 165.889 13.2833 165.856 12.95C165.889 12.5833 166.139 12.2333 166.606 11.9C167.073 11.5667 167.489 11.4 167.856 11.4C168.489 11.4 169.123 11.5333 169.756 11.8C170.423 12.0333 170.839 12.3333 171.006 12.7C171.173 13.9333 171.256 14.8833 171.256 15.55C171.256 17.0167 171.323 19.4167 171.456 22.75L171.506 24.7L171.606 26.6C171.639 27.1333 171.673 27.7667 171.706 28.5C171.739 29.2333 171.756 30.0667 171.756 31C171.756 31.6333 171.439 32.1667 170.806 32.6C170.206 33.0333 169.573 33.25 168.906 33.25C167.939 33.25 167.256 33.0333 166.856 32.6C166.489 32.1667 166.306 31.4833 166.306 30.55L166.356 21.55ZM191.601 21.75C191.868 21.9167 192.385 22.2333 193.151 22.7C193.951 23.1333 194.485 23.65 194.751 24.25C195.018 24.85 195.151 25.6833 195.151 26.75C195.151 27.95 194.801 29.0167 194.101 29.95C193.401 30.85 192.501 31.55 191.401 32.05C190.601 32.4167 189.618 32.7 188.451 32.9C187.318 33.1 186.418 33.2 185.751 33.2C185.085 33.2 184.218 33.1 183.151 32.9C182.118 32.7 181.401 32.5167 181.001 32.35C179.968 31.75 179.068 31.0167 178.301 30.15C177.568 29.2833 177.201 28.4 177.201 27.5C177.201 26.8333 177.418 26.3167 177.851 25.95C178.285 25.55 178.851 25.35 179.551 25.35C179.885 25.35 180.235 25.4833 180.601 25.75C180.968 25.9833 181.218 26.2333 181.351 26.5C181.718 27.3667 182.335 28.0167 183.201 28.45C184.068 28.8833 184.951 29.1 185.851 29.1C187.018 29.1 188.101 28.9167 189.101 28.55C190.101 28.15 190.601 27.6167 190.601 26.95C190.601 26.65 190.518 26.4167 190.351 26.25C190.218 26.05 190.018 25.85 189.751 25.65C189.285 25.3167 188.585 25.05 187.651 24.85C186.718 24.6167 186.118 24.4667 185.851 24.4C184.485 24.1 183.151 23.65 181.851 23.05C180.551 22.4167 179.518 21.6667 178.751 20.8C177.985 19.9333 177.601 18.8167 177.601 17.45C177.601 16.55 177.935 15.6167 178.601 14.65C179.268 13.65 180.018 12.95 180.851 12.55C181.451 12.3167 182.451 12.0667 183.851 11.8C185.285 11.5333 186.251 11.4 186.751 11.4C187.518 11.4 188.351 11.4833 189.251 11.65C190.151 11.7833 190.835 12.0167 191.301 12.35C192.201 12.8833 192.935 13.45 193.501 14.05C194.068 14.6167 194.351 15.2667 194.351 16C194.351 16.3667 194.268 16.7667 194.101 17.2C193.935 17.6 193.735 17.85 193.501 17.95C193.001 18.1833 192.418 18.3 191.751 18.3C191.451 18.3 191.201 18.2167 191.001 18.05C190.835 17.8833 190.601 17.6167 190.301 17.25C189.935 16.6833 189.585 16.35 189.251 16.25C188.851 16.15 188.268 16.0333 187.501 15.9C186.735 15.7333 186.218 15.65 185.951 15.65C185.185 15.65 184.385 15.8667 183.551 16.3C182.751 16.7333 182.351 17.2333 182.351 17.8C182.351 18.1 182.468 18.3333 182.701 18.5C182.968 18.6667 183.235 18.8167 183.501 18.95C183.801 19.0833 184.001 19.1667 184.101 19.2C184.801 19.5333 185.568 19.8167 186.401 20.05C187.268 20.2833 187.801 20.4333 188.001 20.5C189.801 20.9333 191.001 21.35 191.601 21.75ZM199.867 15.6C199.4 15.5333 199.017 15.35 198.717 15.05C198.45 14.7167 198.317 14.3167 198.317 13.85C198.317 13.25 198.55 12.75 199.017 12.35C199.117 12.25 199.283 12.1667 199.517 12.1C199.75 12 199.933 11.9167 200.067 11.85C200.8 11.6167 201.267 11.4333 201.467 11.3C202.233 10.8333 202.75 10.0667 203.017 9C203.283 7.73333 203.45 6.86667 203.517 6.4C203.583 5.66667 203.817 5.11667 204.217 4.75C204.65 4.35 205.183 4.15 205.817 4.15C206.65 4.15 207.233 4.36667 207.567 4.8C207.9 5.23333 208.067 6.03333 208.067 7.2C208.067 8.73333 207.7 10.1833 206.967 11.55C207.433 11.55 208.2 11.5167 209.267 11.45C210.867 11.3833 211.983 11.35 212.617 11.35C213.183 11.35 213.667 11.5 214.067 11.8C214.5 12.0667 214.717 12.4667 214.717 13C214.717 14.2667 214.133 15.0167 212.967 15.25C211.9 15.55 209.967 15.7333 207.167 15.8C206.933 19.0667 206.817 21.65 206.817 23.55C206.817 24.7167 206.867 25.55 206.967 26.05C207.167 27.0833 207.5 27.85 207.967 28.35C208.467 28.8167 209.2 29.05 210.167 29.05C210.633 29.05 211.333 28.9333 212.267 28.7C212.833 28.5333 213.283 28.45 213.617 28.45C214.05 28.45 214.383 28.6 214.617 28.9C214.85 29.2 214.967 29.6 214.967 30.1C214.967 31 214.383 31.75 213.217 32.35C212.05 32.9167 210.667 33.2 209.067 33.2C208.067 33.2 207.083 32.9667 206.117 32.5C205.15 32 204.333 31.4 203.667 30.7C203.533 30.6333 203.333 30.2667 203.067 29.6C202.833 28.9333 202.6 28.2 202.367 27.4C202.267 27 202.217 26.0333 202.217 24.5C202.217 23.0333 202.317 20.5 202.517 16.9L202.567 15.8C202.333 15.8 201.9 15.7833 201.267 15.75C200.633 15.6833 200.167 15.6333 199.867 15.6Z" fill="url(#paint0_linear_106_3)"/>
<defs>
<linearGradient id="paint0_linear_106_3" x1="12.5059" y1="17" x2="193.622" y2="29.7832" gradientUnits="userSpaceOnUse">
<stop stop-color="#3350E8"/>
<stop offset="1" stop-color="#E83333" stop-opacity="0.28"/>
</linearGradient>
</defs>
</svg>
